<svg width="86" height="86" viewBox="0 0 86 86" fill="none" xmlns="http://www.w3.org/2000/svg">
<path d="M7.16666 71.6663V42.9997C7.16666 41.099 7.92171 39.2761 9.26572 37.9321C10.6097 36.5881 12.4326 35.833 14.3333 35.833H71.6667C73.5674 35.833 75.3902 36.5881 76.7343 37.9321C78.0783 39.2761 78.8333 41.099 78.8333 42.9997V71.6663" stroke="#ECECEC" stroke-width="1.5" stroke-linecap="round" stroke-linejoin="round"/>
<path d="M14.3333 35.833V21.4997C14.3333 19.599 15.0884 17.7761 16.4324 16.4321C17.7764 15.0881 19.5993 14.333 21.5 14.333H64.5C66.4007 14.333 68.2236 15.0881 69.5676 16.4321C70.9116 17.7761 71.6667 19.599 71.6667 21.4997V35.833" stroke="#ECECEC" stroke-width="1.5" stroke-linecap="round" stroke-linejoin="round"/>
<path d="M43 14.333V35.833" stroke="#ECECEC" stroke-width="1.5" stroke-linecap="round" stroke-linejoin="round"/>
<path d="M7.16666 64.4998H78.8333" stroke="#ECECEC" stroke-width="1.5" stroke-linecap="round" stroke-linejoin="round"/>
</svg>
