<?xml version="1.0" encoding="UTF-8"?>
<svg id="Layer_2" data-name="Layer 2" xmlns="http://www.w3.org/2000/svg" viewBox="0 0 215.65 141.74">
  <defs>
    <style>
      .cls-1 {
        fill: #fff;
        fill-rule: evenodd;
      }
    </style>
  </defs>
  <g id="Layer_1-2" data-name="Layer 1">
    <g>
      <path class="cls-1" d="m149.1,0v83.63h-83.46V0h83.46Zm-54.99,22.71l20.71-.04s-1.77-3.24-10.2-3.24h-14.59v40.06h4.08V22.71Zm22.57,5.11s1.26.24,2.59,1.9c-.65,3.94-6.19,7.19-9.64,8.5,2.15.55,5.93,1.65,7.7,2.94,8.41-3.99,8.31-16.02-5.11-16.02h-15.69v11.65h8.02c5.66,0,11.22-3,12.12-8.97h0Zm-12.12,11.39h-8.02v3.02c5.12,0,9.82.05,14.91.19,1.81.79,2.68,2.24,2.68,2.24h-17.59v20.56h15.68c11.86,0,17.03-12.25,9.7-16.69,1.93,8.06-7.45,13.39-14.92,13.39h-7.59v-2.43h7.66c16.01-.11,16.09-20.28-2.5-20.28h0Zm7.66,28.43h-18.1v-5.73c-2.19,0-4.32.02-6.5.02V17h17.37c3.63,0,8.37.38,11.06,2.89,3.06,2.86,3.02,3.69,3.02,3.69,9.92,3.54,8.32,14.29-.02,18.68,0,0,1.58,1.58,2.21,3.2,12.26,3.83,8.99,22.17-9.03,22.17h0Zm-8.21,38.05h7.47v2.77h-7.47v-2.77Zm11.12,9.81v-21.72h8.21c1.67,0,3.01.22,4.02.66,1.01.44,1.8,1.12,2.37,2.03.57.91.86,1.87.86,2.87,0,.93-.25,1.8-.76,2.62-.5.82-1.27,1.48-2.29,1.99,1.32.38,2.34,1.04,3.05,1.97.72.93,1.07,2.02,1.07,3.28,0,1.02-.22,1.97-.65,2.84-.43.88-.97,1.55-1.6,2.02-.64.47-1.43.83-2.39,1.07-.96.25-2.14.37-3.53.37h-8.35Zm2.9-12.59h4.73c1.28,0,2.21-.09,2.76-.25.74-.21,1.29-.58,1.66-1.09.37-.5.56-1.14.56-1.9s-.18-1.36-.53-1.91c-.34-.55-.84-.93-1.49-1.13-.64-.2-1.75-.3-3.32-.3h-4.38v6.58Zm0,10.04h5.45c.94,0,1.59-.04,1.98-.1.66-.12,1.22-.31,1.67-.59.45-.28.81-.68,1.11-1.21.29-.53.43-1.14.43-1.84,0-.81-.21-1.52-.63-2.12-.42-.6-1-1.02-1.74-1.26-.74-.25-1.81-.37-3.2-.37h-5.06v7.49Zm15.2,2.55l8.39-21.72h3.18l8.91,21.72h-3.29l-2.53-6.58h-9.22l-2.37,6.58h-3.07Zm6.29-8.92h7.46l-2.28-6.02c-.69-1.83-1.21-3.34-1.57-4.54-.3,1.42-.7,2.81-1.21,4.18l-2.4,6.38Zm16.48,8.92v-21.72h7.54c1.7,0,3,.1,3.9.31,1.25.29,2.32.81,3.21,1.55,1.16.97,2.02,2.21,2.59,3.71.57,1.51.86,3.23.86,5.17,0,1.65-.19,3.11-.58,4.38-.39,1.27-.89,2.33-1.49,3.16-.61.84-1.27,1.49-2,1.97-.72.48-1.59.84-2.61,1.09-1.02.25-2.2.37-3.52.37h-7.89Zm2.9-2.55h4.66c1.44,0,2.57-.13,3.39-.4.82-.27,1.47-.64,1.96-1.12.68-.68,1.22-1.61,1.6-2.76.38-1.15.57-2.55.57-4.19,0-2.27-.38-4.02-1.12-5.25-.75-1.22-1.66-2.04-2.73-2.46-.77-.3-2.02-.45-3.75-.45h-4.59v16.62Zm19.22,2.55v-21.72h15.8v2.55h-12.89v6.67h12.07v2.55h-12.07v7.4h13.41v2.55h-16.32Zm20.29,0v-21.72h2.97l11.48,17.05v-17.05h2.78v21.72h-2.97l-11.48-17.05v17.05h-2.78ZM0,115.51v-21.72h8.21c1.67,0,3.01.22,4.02.66,1.01.44,1.8,1.12,2.37,2.03.58.91.86,1.87.86,2.87,0,.93-.26,1.8-.76,2.62-.5.82-1.27,1.48-2.29,1.99,1.32.38,2.34,1.04,3.05,1.97.71.93,1.07,2.02,1.07,3.28,0,1.02-.22,1.97-.65,2.84-.43.88-.96,1.55-1.6,2.02-.64.47-1.44.83-2.4,1.07-.96.25-2.14.37-3.53.37H0Zm2.9-12.59h4.73c1.28,0,2.2-.09,2.76-.25.74-.21,1.3-.58,1.67-1.09.37-.5.56-1.14.56-1.9s-.17-1.36-.52-1.91c-.35-.55-.85-.93-1.49-1.13-.65-.2-1.76-.3-3.32-.3H2.9v6.58Zm0,10.04h5.45c.94,0,1.59-.04,1.97-.1.66-.12,1.22-.31,1.67-.59.45-.28.82-.68,1.11-1.21.29-.53.43-1.14.43-1.84,0-.81-.21-1.52-.63-2.12-.42-.6-1-1.02-1.74-1.26-.74-.25-1.8-.37-3.2-.37H2.9v7.49Zm15.2,2.55l8.39-21.72h3.18l8.91,21.72h-3.29l-2.53-6.58h-9.21l-2.38,6.58h-3.07Zm6.29-8.92h7.46l-2.28-6.02c-.69-1.83-1.21-3.34-1.57-4.54-.3,1.42-.7,2.81-1.21,4.18l-2.4,6.38Zm16.48,8.92v-21.72h7.54c1.7,0,3,.1,3.9.31,1.25.29,2.32.81,3.21,1.55,1.16.97,2.02,2.21,2.59,3.71.58,1.51.86,3.23.86,5.17,0,1.65-.2,3.11-.58,4.38-.39,1.27-.89,2.33-1.49,3.16-.61.84-1.27,1.49-2,1.97-.72.48-1.59.84-2.61,1.09-1.02.25-2.2.37-3.52.37h-7.89Zm2.9-2.55h4.66c1.44,0,2.57-.13,3.39-.4.82-.27,1.47-.64,1.96-1.12.68-.68,1.22-1.61,1.6-2.76.38-1.15.57-2.55.57-4.19,0-2.27-.38-4.02-1.12-5.25-.75-1.22-1.66-2.04-2.73-2.46-.77-.3-2.02-.45-3.74-.45h-4.59v16.62Zm19.23,2.55v-21.72h15.79v2.55h-12.89v6.67h12.07v2.55h-12.07v7.4h13.41v2.55h-16.31Zm20.29,0v-21.72h2.98l11.48,17.05v-17.05h2.78v21.72h-2.98l-11.48-17.05v17.05h-2.78ZM148.39.7h-82.05v82.22h82.05V.7Z"/>
      <path class="cls-1" d="m82.53,141.48v-16.6h2.2v6.84h8.57v-6.84h2.2v16.6h-2.2v-7.82h-8.57v7.82h-2.2Zm15.62-6.02c0-2.22.62-3.87,1.86-4.94,1.03-.89,2.29-1.33,3.78-1.33,1.65,0,3,.54,4.05,1.62,1.05,1.08,1.57,2.57,1.57,4.48,0,1.55-.23,2.76-.7,3.65-.46.89-1.14,1.57-2.03,2.06-.88.49-1.85.73-2.9.73-1.68,0-3.04-.54-4.08-1.61-1.04-1.08-1.56-2.63-1.56-4.66h0Zm2.09,0c0,1.54.34,2.69,1.01,3.45.68.77,1.52,1.15,2.55,1.15s1.85-.38,2.53-1.15c.67-.77,1.01-1.94,1.01-3.51,0-1.48-.34-2.61-1.02-3.37-.68-.76-1.52-1.15-2.52-1.15s-1.87.38-2.55,1.14c-.67.76-1.01,1.91-1.01,3.45h0Zm15.99,4.19l.28,1.8c-.57.12-1.09.18-1.54.18-.74,0-1.31-.12-1.72-.35-.41-.24-.69-.54-.85-.93-.17-.38-.25-1.19-.25-2.41v-6.93h-1.5v-1.58h1.5v-3.47h2.04v3.47h2.04v1.58h-2.04v7.05c0,.59.03.96.11,1.12.07.17.19.3.35.4.16.1.39.15.69.15.22,0,.52-.03.89-.08h0Zm10.22-2.07l2.11.28c-.33,1.23-.94,2.18-1.84,2.86-.9.68-2.04,1.02-3.43,1.02-1.75,0-3.15-.54-4.17-1.62-1.03-1.08-1.54-2.6-1.54-4.55s.52-3.58,1.56-4.7c1.04-1.12,2.39-1.67,4.04-1.67s2.91.54,3.93,1.64c1.02,1.09,1.52,2.63,1.52,4.62,0,.12,0,.3-.01.54h-8.96c.08,1.32.45,2.33,1.12,3.03.67.7,1.51,1.05,2.51,1.05.75,0,1.38-.2,1.91-.59.53-.39.95-1.02,1.25-1.89h0Zm-6.67-3.27h6.69c-.09-1.01-.35-1.77-.77-2.28-.64-.78-1.49-1.18-2.52-1.18-.93,0-1.72.31-2.36.94-.63.62-.98,1.47-1.05,2.52h0Zm11.31,7.16v-16.6h2.04v16.6h-2.04Z"/>
    </g>
  </g>
</svg>