<svg width="86" height="86" viewBox="0 0 86 86" fill="none" xmlns="http://www.w3.org/2000/svg">
<path d="M35.8334 7.1665H50.1667" stroke="#ECECEC" stroke-width="1.5" stroke-linecap="round" stroke-linejoin="round"/>
<path d="M75.25 28.6664L68.0833 35.8331L62.7083 22.5748C62.2014 21.2179 61.2953 20.0465 60.1093 19.2149C58.9233 18.3833 57.5132 17.9306 56.0648 17.9164H30.1C28.6398 17.8829 27.2042 18.2963 25.9855 19.1013C24.7668 19.9063 23.8231 21.0645 23.2809 22.4207L17.9167 35.8331L10.75 28.6664" stroke="#ECECEC" stroke-width="1.5" stroke-linecap="round" stroke-linejoin="round"/>
<path d="M25.0834 50.1665H25.1188" stroke="#ECECEC" stroke-width="1.5" stroke-linecap="round" stroke-linejoin="round"/>
<path d="M60.9166 50.1665H60.952" stroke="#ECECEC" stroke-width="1.5" stroke-linecap="round" stroke-linejoin="round"/>
<path d="M68.0833 35.833H17.9167C13.9586 35.833 10.75 39.0416 10.75 42.9997V57.333C10.75 61.291 13.9586 64.4997 17.9167 64.4997H68.0833C72.0414 64.4997 75.25 61.291 75.25 57.333V42.9997C75.25 39.0416 72.0414 35.833 68.0833 35.833Z" stroke="#ECECEC" stroke-width="1.5" stroke-linecap="round" stroke-linejoin="round"/>
<path d="M17.9166 64.4998V71.6664" stroke="#ECECEC" stroke-width="1.5" stroke-linecap="round" stroke-linejoin="round"/>
<path d="M68.0834 64.4998V71.6664" stroke="#ECECEC" stroke-width="1.5" stroke-linecap="round" stroke-linejoin="round"/>
</svg>
