<svg width="86" height="86" viewBox="0 0 86 86" fill="none" xmlns="http://www.w3.org/2000/svg">
<path d="M10.75 21.4998H21.5" stroke="#ECECEC" stroke-width="1.5" stroke-linecap="round" stroke-linejoin="round"/>
<path d="M60.9167 21.4998H60.953" stroke="#ECECEC" stroke-width="1.5" stroke-linecap="round" stroke-linejoin="round"/>
<path d="M68.0833 7.1665H17.9167C13.9586 7.1665 10.75 10.3751 10.75 14.3332V71.6665C10.75 75.6245 13.9586 78.8332 17.9167 78.8332H68.0833C72.0414 78.8332 75.25 75.6245 75.25 71.6665V14.3332C75.25 10.3751 72.0414 7.1665 68.0833 7.1665Z" stroke="#ECECEC" stroke-width="1.5" stroke-linecap="round" stroke-linejoin="round"/>
<path d="M43 64.4998C52.8951 64.4998 60.9166 56.4783 60.9166 46.5832C60.9166 36.6881 52.8951 28.6665 43 28.6665C33.1049 28.6665 25.0833 36.6881 25.0833 46.5832C25.0833 56.4783 33.1049 64.4998 43 64.4998Z" stroke="#ECECEC" stroke-width="1.5" stroke-linecap="round" stroke-linejoin="round"/>
<path d="M43 64.4998C45.3759 64.4998 47.6545 63.556 49.3345 61.876C51.0145 60.196 51.9584 57.9174 51.9584 55.5415C51.9584 53.1656 51.0145 50.887 49.3345 49.207C47.6545 47.527 45.3759 46.5832 43 46.5832C40.6241 46.5832 38.3455 45.6393 36.6655 43.9593C34.9855 42.2793 34.0417 40.0007 34.0417 37.6248C34.0417 35.2489 34.9855 32.9704 36.6655 31.2903C38.3455 29.6103 40.6241 28.6665 43 28.6665" stroke="#ECECEC" stroke-width="1.5" stroke-linecap="round" stroke-linejoin="round"/>
</svg>
